<mxfile host="65bd71144e" modified="2020-11-11T16:17:14.462Z" agent="5.0 (Macintosh; Intel Mac OS X 10_14_6) AppleWebKit/537.36 (KHTML, like Gecko) Code/1.51.0 Chrome/83.0.4103.122 Electron/9.3.3 Safari/537.36" etag="qVSJHs9sbNl1HoaqNBMg" version="13.6.5">
    <diagram id="yKp5CQcjfNolYZbuaR4e" name="Page-1">
        <mxGraphModel dx="1402" dy="1243" grid="1" gridSize="10" guides="1" tooltips="1" connect="1" arrows="1" fold="1" page="1" pageScale="1" pageWidth="827" pageHeight="1169" math="0" shadow="0">
            <root>
                <mxCell id="0"/>
                <mxCell id="1" parent="0"/>
                <mxCell id="39" value="" style="rounded=0;whiteSpace=wrap;html=1;fillColor=none;strokeColor=#999999;" parent="1" vertex="1">
                    <mxGeometry x="180" y="280" width="620" height="590" as="geometry"/>
                </mxCell>
                <mxCell id="30" value="" style="rounded=0;whiteSpace=wrap;html=1;fillColor=none;strokeColor=#999999;" parent="1" vertex="1">
                    <mxGeometry x="190" y="322" width="600" height="440" as="geometry"/>
                </mxCell>
                <mxCell id="31" value="" style="rounded=0;whiteSpace=wrap;html=1;fillColor=none;strokeColor=#999999;" parent="1" vertex="1">
                    <mxGeometry x="200" y="350" width="580" height="400" as="geometry"/>
                </mxCell>
                <mxCell id="16" value="&lt;h1&gt;Container Diagram for CCP&lt;/h1&gt;&lt;p&gt;CCP (Central Cache Processor) is deployed to an Auto Scaling Group of EC2 instances.&lt;br&gt;&lt;/p&gt;" style="text;html=1;strokeColor=none;fillColor=none;spacing=5;spacingTop=-20;whiteSpace=wrap;overflow=hidden;rounded=0;" parent="1" vertex="1">
                    <mxGeometry x="10" y="10" width="560" height="90" as="geometry"/>
                </mxCell>
                <mxCell id="37" style="edgeStyle=orthogonalEdgeStyle;rounded=0;orthogonalLoop=1;jettySize=auto;html=1;" parent="1" source="21" target="34" edge="1">
                    <mxGeometry relative="1" as="geometry"/>
                </mxCell>
                <mxCell id="21" value="&lt;b&gt;Logger&lt;/b&gt;&lt;br&gt;&lt;br&gt;&lt;br&gt;Records log entries" style="rounded=0;whiteSpace=wrap;html=1;fillColor=#dae8fc;strokeColor=#6c8ebf;" parent="1" vertex="1">
                    <mxGeometry x="395" y="436" width="135" height="60" as="geometry"/>
                </mxCell>
                <mxCell id="24" value="" style="rounded=0;whiteSpace=wrap;html=1;fillColor=none;strokeColor=#999999;" parent="1" vertex="1">
                    <mxGeometry x="950" y="400" width="200" height="320" as="geometry"/>
                </mxCell>
                <mxCell id="26" value="&lt;b&gt;AWS S3&lt;/b&gt;" style="rounded=0;whiteSpace=wrap;html=1;fillColor=#bac8d3;strokeColor=#23445d;" parent="1" vertex="1">
                    <mxGeometry x="980" y="642" width="120" height="60" as="geometry"/>
                </mxCell>
                <mxCell id="27" value="&lt;b&gt;AWS CloudWatch Metrics&lt;/b&gt;" style="rounded=0;whiteSpace=wrap;html=1;fillColor=#bac8d3;strokeColor=#23445d;" parent="1" vertex="1">
                    <mxGeometry x="980" y="530" width="120" height="60" as="geometry"/>
                </mxCell>
                <mxCell id="115" style="edgeStyle=orthogonalEdgeStyle;rounded=0;orthogonalLoop=1;jettySize=auto;html=1;entryX=0.5;entryY=0;entryDx=0;entryDy=0;" parent="1" source="28" target="27" edge="1">
                    <mxGeometry relative="1" as="geometry"/>
                </mxCell>
                <mxCell id="150" style="edgeStyle=orthogonalEdgeStyle;rounded=0;orthogonalLoop=1;jettySize=auto;html=1;" parent="1" source="28" target="131" edge="1">
                    <mxGeometry relative="1" as="geometry"/>
                </mxCell>
                <mxCell id="28" value="&lt;b&gt;AWS CloudWatch Alarms&lt;/b&gt;" style="rounded=0;whiteSpace=wrap;html=1;fillColor=#bac8d3;strokeColor=#23445d;" parent="1" vertex="1">
                    <mxGeometry x="980" y="413" width="120" height="60" as="geometry"/>
                </mxCell>
                <mxCell id="32" value="&lt;b&gt;EC2 AutoScaling Group &amp;amp; Security Group&lt;/b&gt;" style="text;html=1;strokeColor=none;fillColor=none;align=center;verticalAlign=middle;whiteSpace=wrap;rounded=0;" parent="1" vertex="1">
                    <mxGeometry x="300" y="323" width="450" height="20" as="geometry"/>
                </mxCell>
                <mxCell id="33" value="&lt;b&gt;EC2&lt;/b&gt;&lt;br&gt;[CentOS 7]" style="text;html=1;strokeColor=none;fillColor=none;align=center;verticalAlign=middle;whiteSpace=wrap;rounded=0;" parent="1" vertex="1">
                    <mxGeometry x="357.5" y="350" width="315" height="30" as="geometry"/>
                </mxCell>
                <mxCell id="44" style="edgeStyle=orthogonalEdgeStyle;rounded=0;orthogonalLoop=1;jettySize=auto;html=1;" parent="1" source="34" target="43" edge="1">
                    <mxGeometry relative="1" as="geometry">
                        <Array as="points">
                            <mxPoint x="580" y="590"/>
                            <mxPoint x="580" y="590"/>
                        </Array>
                    </mxGeometry>
                </mxCell>
                <mxCell id="34" value="&lt;br&gt;Local disk&lt;br&gt;(EBS)" style="shape=cylinder2;whiteSpace=wrap;html=1;boundedLbl=1;backgroundOutline=1;size=15;fillColor=#dae8fc;strokeColor=#6c8ebf;" parent="1" vertex="1">
                    <mxGeometry x="433.75" y="550" width="57.5" height="80" as="geometry"/>
                </mxCell>
                <mxCell id="160" style="edgeStyle=orthogonalEdgeStyle;rounded=0;orthogonalLoop=1;jettySize=auto;html=1;" parent="1" source="35" target="158" edge="1">
                    <mxGeometry relative="1" as="geometry"/>
                </mxCell>
                <mxCell id="35" value="&lt;b&gt;Reverse Proxy&lt;/b&gt;&lt;br&gt;[Apache]&lt;br&gt;&lt;br&gt;Provides SSL termination/authorisation by mutual TLS" style="rounded=0;whiteSpace=wrap;html=1;fillColor=#dae8fc;strokeColor=#6c8ebf;" parent="1" vertex="1">
                    <mxGeometry x="210" y="436" width="170" height="94" as="geometry"/>
                </mxCell>
                <mxCell id="180" style="edgeStyle=orthogonalEdgeStyle;rounded=0;orthogonalLoop=1;jettySize=auto;html=1;entryX=0;entryY=0.25;entryDx=0;entryDy=0;strokeColor=#000000;" parent="1" source="36" target="27" edge="1">
                    <mxGeometry relative="1" as="geometry">
                        <Array as="points">
                            <mxPoint x="830" y="420"/>
                            <mxPoint x="830" y="545"/>
                        </Array>
                    </mxGeometry>
                </mxCell>
                <mxCell id="36" value="&lt;b&gt;Metrics Publisher&lt;/b&gt;&lt;br&gt;[CloudWatch Agent]&lt;br&gt;&lt;br&gt;" style="rounded=0;whiteSpace=wrap;html=1;fillColor=#dae8fc;strokeColor=#6c8ebf;" parent="1" vertex="1">
                    <mxGeometry x="610" y="390" width="140" height="60" as="geometry"/>
                </mxCell>
                <mxCell id="38" value="&lt;b&gt;Virtual Private Cloud&lt;/b&gt;&lt;br&gt;[AWS]" style="text;html=1;strokeColor=none;fillColor=none;align=center;verticalAlign=middle;whiteSpace=wrap;rounded=0;" parent="1" vertex="1">
                    <mxGeometry x="280" y="290" width="470" height="20" as="geometry"/>
                </mxCell>
                <mxCell id="182" style="edgeStyle=orthogonalEdgeStyle;rounded=0;orthogonalLoop=1;jettySize=auto;html=1;entryX=0;entryY=0.25;entryDx=0;entryDy=0;" parent="1" source="43" target="26" edge="1">
                    <mxGeometry relative="1" as="geometry">
                        <Array as="points">
                            <mxPoint x="820" y="590"/>
                            <mxPoint x="820" y="657"/>
                        </Array>
                    </mxGeometry>
                </mxCell>
                <mxCell id="43" value="&lt;b&gt;Logs Publisher&lt;/b&gt;&lt;br&gt;[TD Agent]" style="rounded=0;whiteSpace=wrap;html=1;fillColor=#dae8fc;strokeColor=#6c8ebf;" parent="1" vertex="1">
                    <mxGeometry x="615" y="560" width="135" height="60" as="geometry"/>
                </mxCell>
                <mxCell id="63" value="container" style="rounded=0;whiteSpace=wrap;html=1;fillColor=#dae8fc;strokeColor=#6c8ebf;" parent="1" vertex="1">
                    <mxGeometry x="1080" y="865" width="70" height="30" as="geometry"/>
                </mxCell>
                <mxCell id="64" value="system" style="rounded=0;whiteSpace=wrap;html=1;fillColor=#1ba1e2;strokeColor=#006EAF;fontColor=#ffffff;" parent="1" vertex="1">
                    <mxGeometry x="1080" y="825" width="70" height="30" as="geometry"/>
                </mxCell>
                <mxCell id="65" value="person" style="rounded=0;whiteSpace=wrap;html=1;fillColor=#0050ef;strokeColor=#001DBC;fontColor=#ffffff;" parent="1" vertex="1">
                    <mxGeometry x="1080" y="785" width="70" height="30" as="geometry"/>
                </mxCell>
                <mxCell id="68" value="external system" style="rounded=0;whiteSpace=wrap;html=1;fillColor=#bac8d3;strokeColor=#23445d;" parent="1" vertex="1">
                    <mxGeometry x="1080" y="905" width="70" height="30" as="geometry"/>
                </mxCell>
                <mxCell id="103" value="&lt;i&gt;&lt;font color=&quot;#666666&quot;&gt;&lt;b&gt;writes error logs&lt;/b&gt;&lt;/font&gt;&lt;/i&gt;" style="text;html=1;strokeColor=none;fillColor=none;align=center;verticalAlign=middle;whiteSpace=wrap;rounded=0;" parent="1" vertex="1">
                    <mxGeometry x="463" y="510" width="110" height="20" as="geometry"/>
                </mxCell>
                <mxCell id="106" value="&lt;i&gt;&lt;font color=&quot;#666666&quot;&gt;&lt;b&gt;publishes logs to&lt;/b&gt;&lt;br&gt;[HTTPS]&lt;/font&gt;&lt;br&gt;&lt;/i&gt;" style="text;html=1;strokeColor=none;fillColor=none;align=center;verticalAlign=middle;whiteSpace=wrap;rounded=0;" parent="1" vertex="1">
                    <mxGeometry x="840" y="631" width="110" height="20" as="geometry"/>
                </mxCell>
                <mxCell id="111" value="&lt;i&gt;&lt;font color=&quot;#666666&quot;&gt;&lt;b&gt;publishes EC2 metrics to&lt;/b&gt;&lt;br&gt;[HTTPS]&lt;br&gt;&lt;/font&gt;&lt;/i&gt;" style="text;html=1;strokeColor=none;fillColor=none;align=center;verticalAlign=middle;whiteSpace=wrap;rounded=0;" parent="1" vertex="1">
                    <mxGeometry x="830" y="510" width="110" height="20" as="geometry"/>
                </mxCell>
                <mxCell id="116" value="&lt;i&gt;&lt;font color=&quot;#666666&quot;&gt;&lt;b&gt;monitors metrics&lt;/b&gt;&lt;/font&gt;&lt;/i&gt;" style="text;html=1;strokeColor=none;fillColor=none;align=center;verticalAlign=middle;whiteSpace=wrap;rounded=0;" parent="1" vertex="1">
                    <mxGeometry x="1040" y="480" width="110" height="20" as="geometry"/>
                </mxCell>
                <mxCell id="117" value="" style="group" parent="1" vertex="1" connectable="0">
                    <mxGeometry x="935" y="82" width="210" height="130" as="geometry"/>
                </mxCell>
                <mxCell id="118" value="&lt;br&gt;&lt;br&gt;&lt;br&gt;&lt;br&gt;&lt;b&gt;Belfrage&lt;br&gt;Engineers&lt;/b&gt;&lt;br&gt;&lt;br&gt;Team supporting the Platform" style="rounded=0;whiteSpace=wrap;html=1;fillColor=#0050ef;strokeColor=#001DBC;fontColor=#ffffff;" parent="117" vertex="1">
                    <mxGeometry width="210" height="130" as="geometry"/>
                </mxCell>
                <mxCell id="119" value="" style="shape=actor;whiteSpace=wrap;html=1;" parent="117" vertex="1">
                    <mxGeometry x="82.5" y="10" width="45" height="50" as="geometry"/>
                </mxCell>
                <mxCell id="126" style="edgeStyle=orthogonalEdgeStyle;rounded=0;orthogonalLoop=1;jettySize=auto;html=1;entryX=0.797;entryY=0.002;entryDx=0;entryDy=0;entryPerimeter=0;" parent="1" source="121" target="31" edge="1">
                    <mxGeometry relative="1" as="geometry">
                        <Array as="points">
                            <mxPoint x="662" y="310"/>
                            <mxPoint x="662" y="310"/>
                        </Array>
                    </mxGeometry>
                </mxCell>
                <mxCell id="121" value="&lt;b&gt;Cosmos Bastions&lt;/b&gt;&lt;br&gt;&lt;br&gt;Allows&amp;nbsp;secure access to EC2 instances managed by Cosmos" style="rounded=0;whiteSpace=wrap;html=1;fillColor=#bac8d3;strokeColor=#23445d;" parent="1" vertex="1">
                    <mxGeometry x="590" y="122" width="170" height="90" as="geometry"/>
                </mxCell>
                <mxCell id="123" value="&lt;i&gt;&lt;font color=&quot;#666666&quot;&gt;&lt;b&gt;SSH access&lt;/b&gt;&lt;br&gt;[SSH]&lt;br&gt;&lt;/font&gt;&lt;/i&gt;" style="text;html=1;strokeColor=none;fillColor=none;align=center;verticalAlign=middle;whiteSpace=wrap;rounded=0;" parent="1" vertex="1">
                    <mxGeometry x="790" y="139" width="110" height="20" as="geometry"/>
                </mxCell>
                <mxCell id="124" value="&lt;i&gt;&lt;font color=&quot;#666666&quot;&gt;&lt;b&gt;SSH access&lt;/b&gt;&lt;br&gt;[SSH]&lt;br&gt;&lt;/font&gt;&lt;/i&gt;" style="text;html=1;strokeColor=none;fillColor=none;align=center;verticalAlign=middle;whiteSpace=wrap;rounded=0;" parent="1" vertex="1">
                    <mxGeometry x="660" y="230" width="90" height="20" as="geometry"/>
                </mxCell>
                <mxCell id="127" value="&lt;i&gt;&lt;font color=&quot;#666666&quot;&gt;&lt;b&gt;alerts when alarms are fired&lt;/b&gt;&lt;br&gt;[Slack]&lt;br&gt;&lt;/font&gt;&lt;/i&gt;" style="text;html=1;strokeColor=none;fillColor=none;align=center;verticalAlign=middle;whiteSpace=wrap;rounded=0;" parent="1" vertex="1">
                    <mxGeometry x="855" y="230" width="196" height="20" as="geometry"/>
                </mxCell>
                <mxCell id="130" value="&lt;b&gt;ETS&lt;/b&gt;&lt;br&gt;Erlang Term Storage" style="rounded=0;whiteSpace=wrap;html=1;fillColor=#dae8fc;strokeColor=#6c8ebf;" parent="1" vertex="1">
                    <mxGeometry x="940" y="785" width="120" height="30" as="geometry"/>
                </mxCell>
                <mxCell id="151" style="edgeStyle=orthogonalEdgeStyle;rounded=0;orthogonalLoop=1;jettySize=auto;html=1;" parent="1" source="131" target="118" edge="1">
                    <mxGeometry relative="1" as="geometry"/>
                </mxCell>
                <mxCell id="131" value="&lt;b&gt;Alarms Lambda&lt;/b&gt;&lt;br&gt;&lt;br&gt;" style="rounded=0;whiteSpace=wrap;html=1;fillColor=#dae8fc;strokeColor=#6c8ebf;" parent="1" vertex="1">
                    <mxGeometry x="980" y="270" width="120" height="60" as="geometry"/>
                </mxCell>
                <mxCell id="135" value="&lt;i&gt;&lt;font color=&quot;#666666&quot;&gt;&lt;b&gt;publishes messages to&lt;/b&gt;&lt;br&gt;[SNS]&lt;br&gt;&lt;/font&gt;&lt;/i&gt;" style="text;html=1;strokeColor=none;fillColor=none;align=center;verticalAlign=middle;whiteSpace=wrap;rounded=0;" parent="1" vertex="1">
                    <mxGeometry x="1028" y="350" width="110" height="20" as="geometry"/>
                </mxCell>
                <mxCell id="136" style="edgeStyle=orthogonalEdgeStyle;rounded=0;orthogonalLoop=1;jettySize=auto;html=1;entryX=1;entryY=0.5;entryDx=0;entryDy=0;" parent="1" source="118" target="121" edge="1">
                    <mxGeometry relative="1" as="geometry">
                        <Array as="points">
                            <mxPoint x="860" y="167"/>
                            <mxPoint x="860" y="167"/>
                        </Array>
                    </mxGeometry>
                </mxCell>
                <mxCell id="147" value="&lt;b&gt;GenServer&lt;/b&gt;&lt;br&gt;Elixir Process running in memory" style="rounded=0;whiteSpace=wrap;html=1;fillColor=#dae8fc;strokeColor=#6c8ebf;" parent="1" vertex="1">
                    <mxGeometry x="940" y="828" width="120" height="57" as="geometry"/>
                </mxCell>
                <mxCell id="152" value="&lt;i&gt;&lt;font color=&quot;#666666&quot;&gt;&lt;b&gt;publishes logs&lt;/b&gt;&lt;/font&gt;&lt;/i&gt;" style="text;html=1;strokeColor=none;fillColor=none;align=center;verticalAlign=middle;whiteSpace=wrap;rounded=0;" parent="1" vertex="1">
                    <mxGeometry x="500" y="570" width="110" height="20" as="geometry"/>
                </mxCell>
                <mxCell id="158" value="&lt;b&gt;Application Server&lt;/b&gt;&lt;br&gt;[Cowboy]" style="rounded=0;whiteSpace=wrap;html=1;fillColor=#dae8fc;strokeColor=#6c8ebf;" parent="1" vertex="1">
                    <mxGeometry x="235" y="583" width="120" height="60" as="geometry"/>
                </mxCell>
                <mxCell id="159" value="&lt;i&gt;&lt;font color=&quot;#666666&quot;&gt;&lt;b&gt;proxies requests&lt;/b&gt;&lt;br&gt;[HTTP]&lt;br&gt;&lt;/font&gt;&lt;/i&gt;" style="text;html=1;strokeColor=none;fillColor=none;align=center;verticalAlign=middle;whiteSpace=wrap;rounded=0;" parent="1" vertex="1">
                    <mxGeometry x="293" y="550" width="110" height="20" as="geometry"/>
                </mxCell>
                <mxCell id="161" value="&lt;b&gt;Cowboy&lt;/b&gt;&lt;br&gt;Elixir HTTP server" style="rounded=0;whiteSpace=wrap;html=1;fillColor=#dae8fc;strokeColor=#6c8ebf;" parent="1" vertex="1">
                    <mxGeometry x="940" y="895" width="120" height="30" as="geometry"/>
                </mxCell>
                <mxCell id="181" style="edgeStyle=orthogonalEdgeStyle;rounded=0;orthogonalLoop=1;jettySize=auto;html=1;entryX=0;entryY=0.75;entryDx=0;entryDy=0;strokeColor=#000000;" parent="1" source="162" target="27" edge="1">
                    <mxGeometry relative="1" as="geometry">
                        <Array as="points">
                            <mxPoint x="820" y="500"/>
                            <mxPoint x="820" y="575"/>
                        </Array>
                    </mxGeometry>
                </mxCell>
                <mxCell id="162" value="&lt;b&gt;Metrics Publisher&lt;/b&gt;&lt;br&gt;[StatsD Agent]&lt;br&gt;&lt;br&gt;" style="rounded=0;whiteSpace=wrap;html=1;fillColor=#dae8fc;strokeColor=#6c8ebf;" parent="1" vertex="1">
                    <mxGeometry x="612.5" y="470" width="140" height="60" as="geometry"/>
                </mxCell>
                <mxCell id="164" value="&lt;i&gt;&lt;font color=&quot;#666666&quot;&gt;&lt;b&gt;publishes custom metrics to&lt;/b&gt;&lt;br&gt;[HTTPS]&lt;br&gt;&lt;/font&gt;&lt;/i&gt;" style="text;html=1;strokeColor=none;fillColor=none;align=center;verticalAlign=middle;whiteSpace=wrap;rounded=0;" parent="1" vertex="1">
                    <mxGeometry x="840" y="587" width="110" height="20" as="geometry"/>
                </mxCell>
                <mxCell id="183" style="edgeStyle=orthogonalEdgeStyle;rounded=0;orthogonalLoop=1;jettySize=auto;html=1;strokeColor=#000000;" parent="1" source="170" target="26" edge="1">
                    <mxGeometry relative="1" as="geometry">
                        <Array as="points">
                            <mxPoint x="920" y="680"/>
                            <mxPoint x="920" y="680"/>
                        </Array>
                    </mxGeometry>
                </mxCell>
                <mxCell id="170" value="&lt;b&gt;Cache Publisher&lt;/b&gt;&lt;br&gt;[GenServer]" style="rounded=0;whiteSpace=wrap;html=1;fillColor=#dae8fc;strokeColor=#6c8ebf;" parent="1" vertex="1">
                    <mxGeometry x="612.5" y="650" width="135" height="60" as="geometry"/>
                </mxCell>
                <mxCell id="172" value="&lt;b&gt;Belfrage&lt;/b&gt;" style="rounded=0;whiteSpace=wrap;html=1;fillColor=#1ba1e2;strokeColor=#006EAF;fontColor=#ffffff;" parent="1" vertex="1">
                    <mxGeometry x="400" y="792" width="125" height="60" as="geometry"/>
                </mxCell>
                <mxCell id="174" style="edgeStyle=orthogonalEdgeStyle;rounded=0;orthogonalLoop=1;jettySize=auto;html=1;entryX=0.5;entryY=0;entryDx=0;entryDy=0;strokeColor=#000000;" parent="1" source="173" target="172" edge="1">
                    <mxGeometry relative="1" as="geometry">
                        <Array as="points">
                            <mxPoint x="463" y="700"/>
                        </Array>
                    </mxGeometry>
                </mxCell>
                <mxCell id="176" style="edgeStyle=orthogonalEdgeStyle;rounded=0;orthogonalLoop=1;jettySize=auto;html=1;strokeColor=#000000;" parent="1" source="173" target="170" edge="1">
                    <mxGeometry relative="1" as="geometry">
                        <Array as="points">
                            <mxPoint x="420" y="680"/>
                            <mxPoint x="420" y="680"/>
                        </Array>
                    </mxGeometry>
                </mxCell>
                <mxCell id="173" value="&lt;b&gt;Node Connector&lt;/b&gt;&lt;br&gt;[Elixir AWS SDK]" style="rounded=0;whiteSpace=wrap;html=1;fillColor=#dae8fc;strokeColor=#6c8ebf;" parent="1" vertex="1">
                    <mxGeometry x="235" y="660" width="120" height="60" as="geometry"/>
                </mxCell>
                <mxCell id="177" value="&lt;i&gt;&lt;font color=&quot;#666666&quot;&gt;&lt;b&gt;publishes items to&lt;/b&gt;&lt;br&gt;[HTTPS]&lt;br&gt;&lt;/font&gt;&lt;/i&gt;" style="text;html=1;strokeColor=none;fillColor=none;align=center;verticalAlign=middle;whiteSpace=wrap;rounded=0;" parent="1" vertex="1">
                    <mxGeometry x="830" y="687" width="110" height="20" as="geometry"/>
                </mxCell>
                <mxCell id="178" value="&lt;i&gt;&lt;font color=&quot;#666666&quot;&gt;&lt;b&gt;publishes items to&lt;/b&gt;&lt;br&gt;&lt;/font&gt;&lt;/i&gt;" style="text;html=1;strokeColor=none;fillColor=none;align=center;verticalAlign=middle;whiteSpace=wrap;rounded=0;" parent="1" vertex="1">
                    <mxGeometry x="420" y="654" width="110" height="20" as="geometry"/>
                </mxCell>
                <mxCell id="179" value="&lt;i&gt;&lt;font color=&quot;#666666&quot;&gt;&lt;b&gt;connects nodes&lt;br&gt;&lt;/b&gt;[TCP]&lt;br&gt;&lt;/font&gt;&lt;/i&gt;" style="text;html=1;strokeColor=none;fillColor=none;align=center;verticalAlign=middle;whiteSpace=wrap;rounded=0;" parent="1" vertex="1">
                    <mxGeometry x="465" y="720" width="95" height="20" as="geometry"/>
                </mxCell>
                <mxCell id="184" value="&lt;b&gt;Legend&lt;/b&gt;" style="text;html=1;strokeColor=none;fillColor=none;align=center;verticalAlign=middle;whiteSpace=wrap;rounded=0;" parent="1" vertex="1">
                    <mxGeometry x="1080" y="760" width="70" height="20" as="geometry"/>
                </mxCell>
            </root>
        </mxGraphModel>
    </diagram>
</mxfile>
